<svg width="94" height="35" viewBox="0 0 94 35" fill="none" xmlns="http://www.w3.org/2000/svg">
<path d="M19.7266 28.4961C19.2969 29.7721 18.7891 30.7031 18.2031 31.2891C17.6172 31.875 16.1328 32.3828 13.75 32.8125C11.3802 33.2552 8.8737 33.4766 6.23047 33.4766C2.07682 33.4766 0 32.0573 0 29.2188C0 28.4245 0.221354 26.9206 0.664062 24.707L4.47266 5.52734C4.69401 4.42057 4.80469 3.6263 4.80469 3.14453C4.80469 2.70182 4.64844 2.29167 4.33594 1.91406C6.06771 1.26302 7.27214 0.9375 7.94922 0.9375C8.75651 0.9375 9.16016 1.39974 9.16016 2.32422C9.16016 2.55859 8.94531 3.70443 8.51562 5.76172L5.11719 22.8906C4.6224 25.3516 4.375 27.0638 4.375 28.0273C4.375 29.6549 6.17839 30.4688 9.78516 30.4688C13.0013 30.4688 16.3151 29.8112 19.7266 28.4961ZM36.1719 5.91797L31.3477 30.1953C33.8346 29.8698 35.599 29.707 36.6406 29.707C38.3333 29.707 39.1797 30.8854 39.1797 33.2422C38.2292 32.9167 37.2266 32.7539 36.1719 32.7539C35.1562 32.7539 33.9128 32.8516 32.4414 33.0469L27.9883 33.6328C26.3997 33.8542 25.2865 33.9648 24.6484 33.9648C23.5547 33.9648 22.7799 33.7044 22.3242 33.1836C21.8685 32.6628 21.5951 31.7122 21.5039 30.332C22.4284 30.8398 23.3919 31.0938 24.3945 31.0938C24.9414 31.0938 25.8529 30.9961 27.1289 30.8008L31.9727 6.50391C30.5664 6.73828 29.349 6.85547 28.3203 6.85547C26.5234 6.85547 25.625 5.80078 25.625 3.69141C26.1328 4.02995 26.7708 4.19922 27.5391 4.19922C28.4766 4.19922 29.8438 4.02995 31.6406 3.69141L34.7266 3.10547C36.875 2.71484 38.5156 2.51953 39.6484 2.51953C41.4062 2.51953 42.4219 3.69792 42.6953 6.05469C41.9661 5.70312 41.2044 5.52734 40.4102 5.52734C39.4076 5.52734 38.2812 5.61849 37.0312 5.80078C36.8359 5.83984 36.5495 5.87891 36.1719 5.91797ZM59.9023 6.85547L55.5078 28.9062C55.2604 30.1302 55.1367 30.931 55.1367 31.3086C55.1367 31.6732 55.2214 32.0638 55.3906 32.4805C54.0495 33.1445 52.8451 33.4766 51.7773 33.4766C51.1003 33.4766 50.7617 33.2031 50.7617 32.6562C50.7617 32.3828 50.8919 31.5755 51.1523 30.2344L55.8008 6.85547H53.0859C50 6.85547 47.3372 7.14844 45.0977 7.73438C45.5273 6.0026 46.1068 4.92188 46.8359 4.49219C47.5651 4.0625 49.1602 3.84766 51.6211 3.84766H64.8438C68.3984 3.84766 70.7487 2.5651 71.8945 0C72.3503 0.768229 72.5781 1.38672 72.5781 1.85547C72.5781 3.54818 71.5299 4.90885 69.4336 5.9375C68.1706 6.54948 65.7747 6.85547 62.2461 6.85547H59.9023ZM73.3789 28.9258C74.9805 28.8216 76.5365 28.7695 78.0469 28.7695C84.0495 28.7695 88.0729 29.2513 90.1172 30.2148C91.1198 30.6966 91.6211 31.8424 91.6211 33.6523C91.6211 33.9258 91.5885 34.362 91.5234 34.9609C89.8828 33.9714 87.9688 33.2747 85.7812 32.8711C83.5938 32.4674 80.6966 32.2656 77.0898 32.2656C75.5404 32.2656 74.0169 32.3503 72.5195 32.5195L71.8555 32.5781L70.5859 32.7148C69.4661 32.7148 68.9062 32.2786 68.9062 31.4062C68.9062 31.1328 69.0299 30.4427 69.2773 29.3359C73.5221 23.7109 79.8958 16.5234 88.3984 7.77344C88.6719 7.48698 89.2904 6.82943 90.2539 5.80078C86.5039 6.04818 83.6979 6.22396 81.8359 6.32812C79.7005 6.43229 78.3398 6.48438 77.7539 6.48438C74.8503 6.48438 73.3984 5.46875 73.3984 3.4375C73.3984 3.20312 73.4245 2.59766 73.4766 1.62109C74.6615 3.10547 77.5846 3.84766 82.2461 3.84766H84.707C88.5091 3.84766 91.5951 3.61979 93.9648 3.16406C93.7435 4.64844 93.5026 5.66406 93.2422 6.21094C92.9948 6.75781 92.4479 7.45443 91.6016 8.30078C89.6094 10.293 86.3737 13.8216 81.8945 18.8867C77.4154 23.9518 74.5768 27.2982 73.3789 28.9258Z" fill="black"/>
</svg>
