<svg width="58" height="51" viewBox="0 0 58 51" fill="none" xmlns="http://www.w3.org/2000/svg">
<path d="M50.8222 31.875H21.3041L21.9632 35.0625H48.9914C50.5422 35.0625 51.6916 36.487 51.3479 37.9829L50.7924 40.4011C52.6745 41.3048 53.9722 43.2133 53.9722 45.4219C53.9722 48.5299 51.4026 51.0442 48.2504 50.9994C45.2474 50.9567 42.7776 48.5459 42.6966 45.576C42.6523 43.9536 43.3093 42.4832 44.3885 41.4374H23.2781C24.323 42.45 24.9722 43.8606 24.9722 45.4219C24.9722 48.5907 22.301 51.1425 19.0645 50.9938C16.1907 50.8618 13.8534 48.5648 13.7024 45.7228C13.5858 43.528 14.7533 41.5935 16.527 40.5843L9.4535 6.375H2.41667C1.08196 6.375 0 5.3047 0 3.98437V2.39062C0 1.0703 1.08196 0 2.41667 0H12.7408C13.8888 0 14.8783 0.798967 15.1084 1.9115L16.0314 6.375H55.5823C57.1331 6.375 58.2826 7.79951 57.9389 9.29545L53.1788 30.0142C52.9287 31.1026 51.9506 31.875 50.8222 31.875ZM40.5828 19.125H36.25V13.1484C36.25 12.4883 35.709 11.9531 35.0417 11.9531H32.625C31.9577 11.9531 31.4167 12.4883 31.4167 13.1484V19.125H27.0839C26.0074 19.125 25.4682 20.4125 26.2295 21.1655L32.9789 27.8422C33.4508 28.309 34.2159 28.309 34.6878 27.8422L41.4373 21.1655C42.1984 20.4125 41.6593 19.125 40.5828 19.125Z" fill="#FF0091"/>
</svg>
