<svg width="39" height="45" viewBox="0 0 39 45" fill="none" xmlns="http://www.w3.org/2000/svg">
<path d="M39 8.4375V30.9375C39 35.4916 33.6354 39.375 27.6811 39.375L33.1638 43.745C33.6815 44.1577 33.3904 45 32.7321 45H6.26786C5.60817 45 5.31967 44.1568 5.83633 43.745L11.3189 39.375C5.38165 39.375 0 35.5038 0 30.9375V8.4375C0 3.77763 5.57143 0 11.1429 0H27.8571C33.5156 0 39 3.77763 39 8.4375ZM34.8214 20.3906V10.5469C34.8214 9.38188 33.886 8.4375 32.7321 8.4375H6.26786C5.11396 8.4375 4.17857 9.38188 4.17857 10.5469V20.3906C4.17857 21.5556 5.11396 22.5 6.26786 22.5H32.7321C33.886 22.5 34.8214 21.5556 34.8214 20.3906ZM19.5 26.0156C16.8076 26.0156 14.625 28.2192 14.625 30.9375C14.625 33.6558 16.8076 35.8594 19.5 35.8594C22.1924 35.8594 24.375 33.6558 24.375 30.9375C24.375 28.2192 22.1924 26.0156 19.5 26.0156Z" fill="black"/>
</svg>
