<svg width="48" height="39" viewBox="0 0 48 39" fill="none" xmlns="http://www.w3.org/2000/svg">
<path d="M43.866 15.0648L42.742 12.2109L40.749 7.15C39.038 2.80617 34.957 0 30.35 0H17.65C13.044 0 8.962 2.80617 7.251 7.15L5.258 12.2109L4.134 15.0648C1.722 15.9961 0 18.3483 0 21.125V26C0 27.6372 0.616 29.1149 1.6 30.2585V35.75C1.6 37.5446 3.033 39 4.8 39H8C9.767 39 11.2 37.5446 11.2 35.75V32.5H36.8V35.75C36.8 37.5446 38.233 39 40 39H43.2C44.967 39 46.4 37.5446 46.4 35.75V30.2585C47.384 29.1159 48 27.6382 48 26V21.125C48 18.3483 46.278 15.9961 43.866 15.0648ZM13.193 9.56414C13.922 7.71367 15.687 6.5 17.65 6.5H30.35C32.313 6.5 34.078 7.71367 34.807 9.56414L36.8 14.625H11.2L13.193 9.56414ZM8 25.9797C6.08 25.9797 4.8 24.6837 4.8 22.7398C4.8 20.7959 6.08 19.5 8 19.5C9.92 19.5 12.8 22.4159 12.8 24.3598C12.8 26.3037 9.92 25.9797 8 25.9797ZM40 25.9797C38.08 25.9797 35.2 26.3037 35.2 24.3598C35.2 22.4159 38.08 19.5 40 19.5C41.92 19.5 43.2 20.7959 43.2 22.7398C43.2 24.6837 41.92 25.9797 40 25.9797Z" fill="black"/>
</svg>
